<?xml version="1.0" encoding="UTF-8"?><svg id="Layer_2" xmlns="http://www.w3.org/2000/svg" xmlns:xlink="http://www.w3.org/1999/xlink" viewBox="0 0 276.82 123.37"><defs><style>.cls-1{fill:#fff;}</style><linearGradient id="tdg-email-gradient" x1="0" y1="123.37" x2="276.82" y2="0" gradientUnits="userSpaceOnUse"><stop offset="0" stop-color="#050D1D"/><stop offset="0.4" stop-color="#2E52AC"/><stop offset="0.7" stop-color="#6616BD"/><stop offset="1" stop-color="#54BAD7"/></linearGradient></defs><g id="Layer_1-2"><rect width="276.82" height="123.37" fill="url(#tdg-email-gradient)"/><g id="Layer_1-2-2"><path class="cls-1" d="M131.23,50.96c-.9-.31-4.04-.7-9.42-1.18-.45-.04-.79-.07-1-.08-.3-.03-.72-.07-1.29-.12-2.67-.21-4.01-.76-4.01-1.64,0-.55.28-.95.85-1.21.57-.26,1.46-.39,2.68-.39,1.43,0,2.47.17,3.12.52.65.35,1.01.91,1.07,1.69h11.81c-.16-2.63-1.47-4.58-3.92-5.84s-6.19-1.89-11.22-1.89c-5.32,0-9.2.61-11.63,1.84-2.37,1.2-3.58,3.08-3.64,5.64-.71-1.51-1.69-2.8-2.95-3.87-2.86-2.41-7.05-3.62-12.58-3.62-5.21,0-9.24,1.07-12.09,3.21-2.85,2.14-4.27,5.17-4.27,9.08s1.42,6.92,4.27,9.06c2.85,2.14,6.88,3.21,12.09,3.21,4.69,0,8.45-.66,11.27-1.98,1.86-.87,3.28-2.02,4.25-3.43.61,1.46,1.71,2.62,3.29,3.46,2.45,1.3,6.3,1.95,11.54,1.95,5.89,0,10.14-.65,12.72-1.96,2.59-1.31,3.88-3.44,3.88-6.38,0-1.59-.36-2.85-1.08-3.76s-1.96-1.69-3.73-2.32h0ZM85.28,47.59c1.1-.68,2.56-1.02,4.38-1.02,1.69,0,3.03.35,4.03,1.04,1,.7,1.58,1.68,1.72,2.95h-12.19c.27-1.3.95-2.29,2.06-2.97h0ZM123.28,59.11c-.59.26-1.48.39-2.64.39-1.39,0-2.4-.18-3.02-.53-.62-.35-.97-.93-1.05-1.74l-12.53.02c0,.11.01.21.02.32h-9.47c-.36.59-.96,1.03-1.78,1.34-.83.31-1.87.46-3.11.46-1.89,0-3.35-.34-4.39-1.02-1.04-.68-1.56-1.64-1.56-2.89h22.22v-.4c0-.91-.06-1.78-.16-2.6.52.71,1.2,1.25,2.03,1.62,1.76.79,5.16,1.43,10.19,1.93h.08c.32.03.79.07,1.4.14,3.11.28,4.67.87,4.67,1.78,0,.52-.3.91-.89,1.17h0Z"/><rect class="cls-1" x="136.41" y="33.88" width="10.47" height="5.84"/><rect class="cls-1" x="136.41" y="41.6" width="10.47" height="23"/><path class="cls-1" d="M168.8,43.82c-1.2-.95-2.58-1.65-4.13-2.12s-3.31-.69-5.27-.69c-3.74,0-6.73,1.01-8.97,3.03-2.24,2.02-3.36,4.69-3.36,8.02s1.11,6.01,3.34,8.01,5.21,3,8.95,3c1.9,0,3.59-.21,5.07-.62s2.8-1.05,3.95-1.91c.01.15.02.31.03.47s.01.42.01.75c0,1.54-.34,2.64-1,3.31s-1.77,1-3.31,1c-.75,0-1.33-.12-1.75-.34-.42-.23-.71-.59-.87-1.1h-13.75c.5,2.61,1.95,4.52,4.35,5.75,2.41,1.23,5.91,1.84,10.53,1.84,4.01,0,7.22-.49,9.62-1.46,2.41-.98,4.24-2.53,5.51-4.65.33-.56.57-1.3.7-2.22.13-.92.2-2.39.2-4.39v-17.91h-9.77l-.08,2.22h0ZM166.95,55.42c-.95.78-2.22,1.17-3.83,1.17s-2.88-.39-3.83-1.17c-.95-.78-1.42-1.83-1.42-3.14s.48-2.38,1.44-3.17c.96-.79,2.23-1.18,3.81-1.18s2.87.39,3.82,1.18c.96.79,1.43,1.84,1.43,3.17s-.47,2.36-1.42,3.14Z"/><path class="cls-1" d="M206.79,43.72c-1.56-1.71-4.02-2.57-7.39-2.57-1.71,0-3.31.23-4.79.69-1.49.46-2.91,1.17-4.29,2.14v-2.39h-10.27v23h10.27v-11.25c0-1.27.43-2.27,1.29-2.99s2.05-1.08,3.56-1.08c1.36,0,2.32.33,2.87.97s.82,1.83.82,3.54v10.81h10.27v-12.73c0-3.72-.78-6.43-2.34-8.14h0Z"/><path class="cls-1" d="M134.66,66.23l-4.04,8.53c-.26.57-.5,1.11-.69,1.6-.2.5-.36.97-.47,1.41-.15-.56-.34-1.13-.57-1.71-.23-.58-.53-1.2-.88-1.85l-4.08-7.98h-20.67v10.97c0,1.24-.47,2.21-1.41,2.91s-2.24,1.05-3.9,1.05c-1.49,0-2.54-.32-3.14-.95-.6-.63-.9-1.78-.9-3.45v-10.54h-11.23v12.42c0,3.63.85,6.27,2.56,7.95,1.7,1.68,4.4,2.51,8.08,2.51,1.87,0,3.63-.23,5.26-.69,1.63-.45,3.19-1.15,4.68-2.09v2.33h11.23v-17.72l8.76,14.6c-.35,1.3-.89,2.2-1.62,2.7s-1.9.74-3.49.74h-2.48v6.53h7.81c1.84,0,3.3-.16,4.38-.49s2.07-.88,2.99-1.66c.58-.51,1.29-1.38,2.12-2.62.83-1.24,1.83-2.93,3.02-5.09l10.64-19.42h-11.96,0Z"/><path class="cls-1" d="M63.67,72.23v6.26h5.22c-.31,1.17-1.16,2.1-2.55,2.78-1.39.68-3.13,1.02-5.22,1.02-2.79,0-4.97-.71-6.53-2.12-1.56-1.41-2.34-3.4-2.34-5.95s.79-4.54,2.37-6.04c1.58-1.5,3.68-2.25,6.3-2.25,1.56,0,2.9.29,4,.86,1.11.57,1.99,1.45,2.67,2.62h13.78c-.48-3.27-2.55-5.83-6.21-7.67-1.9-.96-4.14-1.66-6.69-2.12,2.32-2.44,3.49-5.71,3.49-9.83,0-4.85-1.61-8.55-4.83-11.08-3.22-2.53-7.91-3.8-14.06-3.8h-19.01v11.08h11.53v-3.73h5.68c2.95.01,5.08.58,6.39,1.71,1.3,1.13,1.95,2.97,1.95,5.52s-.64,4.42-1.94,5.54c-1.29,1.13-3.43,1.7-6.41,1.7h-17.2v7.88h8.12c-2.29,2.43-3.44,5.64-3.44,9.61,0,5.02,1.83,8.81,5.51,11.37,3.67,2.56,9.11,3.84,16.33,3.84,3.42,0,6.28-.27,8.57-.8,2.29-.54,4.16-1.38,5.63-2.52l1.36,2.56h5.66v-16.43h-18.12,0Z"/><path class="cls-1" d="M46.78,52.2c0-1.31-.41-2.3-1.24-2.98-.82-.67-2.04-1.01-3.64-1.01-1.51,0-2.67.3-3.5.9-.62.45-1.01,1.05-1.16,1.79-.05-.84-.27-1.46-.67-1.88-.45-.48-1.17-.72-2.14-.72-.5,0-.96.06-1.39.19-.43.13-.84.33-1.24.6v-2.6h-2.97v.07h-9.18v2.11h3.1v6.2h3.32v-6.2h2.76v6.2h2.97v-3.15c0-.36.13-.63.37-.84.25-.2.59-.3,1.03-.3.4,0,.68.09.84.27s.24.51.24.99v3.03h2.97v-2.41c.16.71.54,1.29,1.15,1.73.82.6,1.99.9,3.5.9,1.36,0,2.44-.19,3.26-.56.81-.37,1.34-.91,1.56-1.63h-3.23c-.11.17-.28.29-.52.38-.24.08-.54.13-.9.13-.55,0-.97-.09-1.27-.28s-.45-.46-.45-.81h6.43v-.11h0ZM40.21,50.93c.08-.36.27-.64.59-.83s.74-.28,1.27-.28c.49,0,.87.1,1.17.29s.45.47.5.82h-3.53Z"/></g></g></svg>
