<?xml version="1.0" encoding="UTF-8"?><svg id="Layer_2" xmlns="http://www.w3.org/2000/svg" viewBox="0 0 558.71 181.73"><defs><style>.cls-1{fill:#fff;}</style></defs><g id="Layer_1-2"><path class="cls-1" d="M329.01,50.38c-2.64-.91-11.91-2.07-27.79-3.49-1.34-.12-2.33-.2-2.96-.24-.87-.08-2.13-.2-3.79-.36-7.88-.63-11.83-2.25-11.83-4.85,0-1.62.84-2.81,2.51-3.58,1.67-.77,4.31-1.15,7.89-1.15,4.22,0,7.28.51,9.2,1.54,1.91,1.03,2.97,2.68,3.16,4.97h34.83c-.47-7.77-4.33-13.5-11.56-17.21s-18.26-5.56-33.08-5.56c-15.69,0-27.12,1.81-34.3,5.44-7,3.54-10.57,9.08-10.74,16.63-2.08-4.45-4.97-8.25-8.69-11.4-8.42-7.11-20.78-10.67-37.1-10.67-15.37,0-27.26,3.15-35.66,9.46-8.4,6.31-12.59,15.24-12.59,26.79s4.2,20.42,12.59,26.73c8.4,6.31,20.28,9.46,35.66,9.46,13.84,0,24.91-1.95,33.23-5.85,5.49-2.58,9.66-5.95,12.52-10.11,1.8,4.32,5.03,7.72,9.69,10.2,7.23,3.84,18.58,5.76,34.03,5.76,17.38,0,29.89-1.93,37.52-5.79,7.63-3.86,11.44-10.13,11.44-18.8,0-4.69-1.06-8.39-3.19-11.09s-5.79-4.98-11-6.83ZM193.5,40.45c3.25-2.01,7.56-3.02,12.92-3.02,4.97,0,8.93,1.03,11.88,3.07,2.96,2.05,4.65,4.95,5.08,8.69h-35.95c.79-3.82,2.81-6.74,6.06-8.75ZM305.56,74.42c-1.75.77-4.35,1.15-7.78,1.15-4.1,0-7.07-.52-8.9-1.57-1.83-1.04-2.87-2.75-3.1-5.12l-36.96.06c.01.32.04.63.07.95h-27.93c-1.06,1.73-2.82,3.05-5.26,3.96-2.45.91-5.5,1.36-9.17,1.36-5.56,0-9.88-1-12.95-3.02-3.07-2.01-4.61-4.85-4.61-8.51h65.52v-1.18c0-2.69-.17-5.25-.48-7.68,1.54,2.1,3.53,3.7,6,4.79,5.2,2.33,15.22,4.22,30.04,5.68h.24c.95.08,2.33.22,4.14.41,9.18.83,13.78,2.58,13.78,5.26,0,1.54-.88,2.69-2.63,3.46Z"/><rect class="cls-1" x="344.28" width="30.87" height="17.21"/><rect class="cls-1" x="344.28" y="22.77" width="30.87" height="67.82"/><path class="cls-1" d="M439.79,29.33c-3.55-2.8-7.61-4.88-12.18-6.24-4.57-1.36-9.76-2.04-15.55-2.04-11.04,0-19.86,2.98-26.46,8.93-6.6,5.95-9.9,13.84-9.9,23.65s3.28,17.73,9.84,23.62c6.56,5.89,15.36,8.84,26.4,8.84,5.6,0,10.58-.61,14.96-1.83,4.38-1.22,8.26-3.09,11.65-5.62.04.43.07.9.09,1.39.02.49.03,1.23.03,2.22,0,4.53-.99,7.79-2.96,9.76-1.97,1.97-5.22,2.96-9.76,2.96-2.21,0-3.93-.34-5.17-1.01-1.24-.67-2.1-1.75-2.57-3.25h-40.56c1.46,7.69,5.74,13.34,12.83,16.97,7.1,3.63,17.44,5.44,31.04,5.44,11.83,0,21.29-1.44,28.38-4.32,7.1-2.88,12.51-7.45,16.26-13.72.98-1.66,1.67-3.84,2.07-6.56.39-2.72.59-7.04.59-12.95V22.77h-28.8l-.24,6.56ZM434.34,63.54c-2.8,2.31-6.56,3.46-11.29,3.46s-8.5-1.15-11.29-3.46c-2.8-2.31-4.2-5.39-4.2-9.25s1.42-7.02,4.26-9.34c2.84-2.33,6.58-3.49,11.23-3.49s8.45,1.16,11.26,3.49c2.82,2.33,4.23,5.44,4.23,9.34s-1.4,6.95-4.2,9.25Z"/><path class="cls-1" d="M551.82,29.03c-4.59-5.05-11.86-7.57-21.79-7.57-5.05,0-9.76.68-14.13,2.04-4.38,1.36-8.59,3.46-12.65,6.3v-7.04h-30.28v67.82h30.28v-33.17c0-3.75,1.27-6.68,3.81-8.81s6.04-3.19,10.5-3.19c4.02,0,6.84.96,8.46,2.87,1.62,1.91,2.42,5.39,2.42,10.44v31.87h30.27v-37.55c0-10.96-2.3-18.96-6.89-24.01Z"/><path class="cls-1" d="M339.12,95.4l-11.91,25.14c-.78,1.69-1.46,3.27-2.04,4.73-.58,1.46-1.05,2.85-1.39,4.15-.43-1.65-.99-3.33-1.68-5.05-.69-1.71-1.55-3.53-2.59-5.45l-12.04-23.53h-60.96v32.35c0,3.65-1.39,6.52-4.17,8.59s-6.61,3.11-11.49,3.11c-4.4,0-7.48-.93-9.25-2.8-1.77-1.87-2.65-5.26-2.65-10.18v-31.08h-33.13v36.62c0,10.69,2.51,18.5,7.54,23.44,5.02,4.94,12.97,7.41,23.84,7.41,5.52,0,10.69-.67,15.5-2.02,4.81-1.34,9.41-3.4,13.81-6.17v6.86h33.13v-52.26l25.83,43.04c-1.04,3.84-2.63,6.5-4.79,7.96-2.16,1.46-5.59,2.19-10.29,2.19h-7.31v19.26h23.03c5.43,0,9.74-.48,12.91-1.44,3.17-.96,6.11-2.59,8.83-4.9,1.72-1.5,3.81-4.08,6.24-7.73,2.44-3.65,5.4-8.65,8.9-15l31.38-57.27h-35.26Z"/><path class="cls-1" d="M129.78,113.1v18.46h15.4c-.91,3.46-3.41,6.19-7.51,8.19-4.1,2-9.23,3-15.4,3-8.24,0-14.66-2.08-19.25-6.26-4.59-4.17-6.89-10.02-6.89-17.56s2.33-13.4,6.99-17.82c4.66-4.42,10.85-6.63,18.57-6.63,4.61,0,8.55.85,11.81,2.54,3.26,1.69,5.88,4.27,7.86,7.73h40.63c-1.42-9.65-7.53-17.19-18.31-22.61-5.61-2.82-12.2-4.9-19.74-6.25,6.85-7.19,10.28-16.85,10.28-28.99,0-14.31-4.75-25.2-14.25-32.67-9.5-7.47-23.32-11.21-41.45-11.21h-56.06v32.67h34v-11h3.46l13.28.04c8.71,0,14.99,1.67,18.83,5,3.84,3.33,5.76,8.76,5.76,16.29s-1.9,13.02-5.71,16.35c-3.8,3.33-10.1,5-18.89,5h-50.73v23.24h23.95c-6.75,7.18-10.15,16.62-10.15,28.34,0,14.8,5.41,25.98,16.24,33.54,10.83,7.55,26.87,11.33,48.14,11.33,10.09,0,18.51-.79,25.27-2.36,6.75-1.58,12.28-4.06,16.6-7.44l4.01,7.55h16.69v-48.44h-53.44Z"/><path class="cls-1" d="M79.98,54.02c0-3.86-1.22-6.79-3.65-8.78-2.43-1.99-6.01-2.99-10.73-2.99-4.45,0-7.88.88-10.31,2.65-1.84,1.34-2.98,3.11-3.43,5.29-.16-2.47-.81-4.32-1.97-5.54-1.34-1.41-3.45-2.12-6.32-2.12-1.46,0-2.82.19-4.09.57-1.26.38-2.48.97-3.66,1.76v-7.67h-8.75v.2H0v6.21h9.15v18.28h9.8v-18.28h8.13v18.28h8.75v-9.29c0-1.05.37-1.87,1.1-2.47.74-.6,1.75-.89,3.04-.89,1.17,0,2,.27,2.47.81.47.54.71,1.51.71,2.91v8.93h8.75v-7.11c.47,2.1,1.6,3.81,3.39,5.11,2.43,1.77,5.86,2.65,10.31,2.65,4,0,7.2-.55,9.61-1.64,2.4-1.09,3.94-2.69,4.6-4.8h-9.52c-.31.49-.82.86-1.52,1.11-.71.25-1.59.38-2.65.38-1.61,0-2.86-.28-3.75-.84-.89-.56-1.33-1.36-1.33-2.38h18.95v-.33ZM60.59,50.29c.23-1.07.81-1.89,1.75-2.45.94-.56,2.19-.84,3.74-.84,1.44,0,2.58.29,3.44.86.86.57,1.34,1.39,1.47,2.43h-10.4Z"/></g></svg>
